<svg width="253" height="48" viewBox="0 0 253 48" fill="none" xmlns="http://www.w3.org/2000/svg">
<path d="M93.167 19.8334L89.0003 24L93.167 28.1667" stroke="#F15E75" stroke-width="2" stroke-linecap="round" stroke-linejoin="round"/>
<path d="M89 24H99" stroke="#F15E75" stroke-width="2" stroke-linecap="round" stroke-linejoin="round"/>
<path d="M89 31.5H85.6667C85.2246 31.5 84.8007 31.3244 84.4882 31.0118C84.1756 30.6993 84 30.2754 84 29.8333V18.1667C84 17.7246 84.1756 17.3007 84.4882 16.9882C84.8007 16.6756 85.2246 16.5 85.6667 16.5H89" stroke="#F15E75" stroke-width="2" stroke-linecap="round" stroke-linejoin="round"/>
<path d="M110.62 28.5V17.3H112.46V26.74H118.14V28.5H110.62ZM119.837 27.444C119.026 26.6227 118.621 25.6147 118.621 24.42C118.621 23.2253 119.026 22.2227 119.837 21.412C120.658 20.5907 121.666 20.18 122.861 20.18C124.055 20.18 125.058 20.5907 125.869 21.412C126.69 22.2227 127.101 23.2253 127.101 24.42C127.101 25.6147 126.69 26.6227 125.869 27.444C125.058 28.2547 124.055 28.66 122.861 28.66C121.666 28.66 120.658 28.2547 119.837 27.444ZM121.069 22.452C120.61 22.9427 120.381 23.5987 120.381 24.42C120.381 25.2413 120.61 25.9027 121.069 26.404C121.527 26.8947 122.125 27.14 122.861 27.14C123.597 27.14 124.194 26.8947 124.653 26.404C125.111 25.9027 125.341 25.2413 125.341 24.42C125.341 23.5987 125.111 22.9427 124.653 22.452C124.194 21.9507 123.597 21.7 122.861 21.7C122.125 21.7 121.527 21.9507 121.069 22.452ZM129.146 27.492C128.421 26.7027 128.058 25.6787 128.058 24.42C128.058 23.1613 128.421 22.1427 129.146 21.364C129.882 20.5747 130.799 20.18 131.898 20.18C132.591 20.18 133.226 20.3827 133.802 20.788C134.058 20.9693 134.277 21.172 134.458 21.396H134.538V20.34H136.218V31.54H129.258V30.02H134.538V27.46H134.458C134.277 27.684 134.058 27.8867 133.802 28.068C133.237 28.4627 132.602 28.66 131.898 28.66C130.799 28.66 129.882 28.2707 129.146 27.492ZM130.458 22.404C130.031 22.8733 129.818 23.5453 129.818 24.42C129.818 25.2947 130.031 25.9667 130.458 26.436C130.885 26.9053 131.471 27.14 132.218 27.14C132.922 27.14 133.482 26.9053 133.898 26.436C134.325 25.956 134.538 25.284 134.538 24.42C134.538 23.556 134.325 22.8893 133.898 22.42C133.482 21.94 132.922 21.7 132.218 21.7C131.471 21.7 130.885 21.9347 130.458 22.404ZM143.352 27.444C142.542 26.6227 142.136 25.6147 142.136 24.42C142.136 23.2253 142.542 22.2227 143.352 21.412C144.174 20.5907 145.182 20.18 146.376 20.18C147.571 20.18 148.574 20.5907 149.384 21.412C150.206 22.2227 150.616 23.2253 150.616 24.42C150.616 25.6147 150.206 26.6227 149.384 27.444C148.574 28.2547 147.571 28.66 146.376 28.66C145.182 28.66 144.174 28.2547 143.352 27.444ZM144.584 22.452C144.126 22.9427 143.896 23.5987 143.896 24.42C143.896 25.2413 144.126 25.9027 144.584 26.404C145.043 26.8947 145.64 27.14 146.376 27.14C147.112 27.14 147.71 26.8947 148.168 26.404C148.627 25.9027 148.856 25.2413 148.856 24.42C148.856 23.5987 148.627 22.9427 148.168 22.452C147.71 21.9507 147.112 21.7 146.376 21.7C145.64 21.7 145.043 21.9507 144.584 22.452ZM152.054 25.22V20.34H153.734V25.06C153.734 25.7747 153.888 26.3027 154.198 26.644C154.518 26.9747 155.003 27.14 155.654 27.14C156.304 27.14 156.838 26.9213 157.254 26.484C157.68 26.036 157.894 25.4547 157.894 24.74V20.34H159.574V28.5H157.894V27.38H157.814C157.686 27.5933 157.488 27.8067 157.222 28.02C156.646 28.4467 155.99 28.66 155.254 28.66C154.24 28.66 153.451 28.3667 152.886 27.78C152.331 27.1933 152.054 26.34 152.054 25.22ZM160.851 21.86V20.34H161.811V18.58H163.491V20.34H165.971V21.86H163.491V26.98H166.051V28.5H161.811V21.86H160.851Z" fill="#F15E75"/>
<rect x="1" y="1" width="251" height="46" rx="15" stroke="#F15E75"/>
</svg>
