<svg width="116" height="116" viewBox="0 0 116 116" fill="none" xmlns="http://www.w3.org/2000/svg">
<path d="M32.0532 0.919327H28.5938V4.3788H32.0532V0.919327Z" fill="black"/>
<path d="M42.4321 0.919327H38.9727V4.3788H42.4321V0.919327Z" fill="black"/>
<path d="M45.8911 0.919327H42.4316V4.3788H45.8911V0.919327Z" fill="black"/>
<path d="M49.3501 0.919327H45.8906V4.3788H49.3501V0.919327Z" fill="black"/>
<path d="M56.27 0.919327H52.8105V4.3788H56.27V0.919327Z" fill="black"/>
<path d="M66.647 0.919327H63.1875V4.3788H66.647V0.919327Z" fill="black"/>
<path d="M83.9458 0.919327H80.4863V4.3788H83.9458V0.919327Z" fill="black"/>
<path d="M35.5123 4.379H32.0527V7.83844H35.5123V4.379Z" fill="black"/>
<path d="M38.9711 4.379H35.5117V7.83844H38.9711V4.379Z" fill="black"/>
<path d="M42.4321 4.379H38.9727V7.83844H42.4321V4.379Z" fill="black"/>
<path d="M45.8911 4.379H42.4316V7.83844H45.8911V4.379Z" fill="black"/>
<path d="M49.3501 4.379H45.8906V7.83844H49.3501V4.379Z" fill="black"/>
<path d="M52.8091 4.379H49.3496V7.83844H52.8091V4.379Z" fill="black"/>
<path d="M66.647 4.379H63.1875V7.83844H66.647V4.379Z" fill="black"/>
<path d="M70.1079 4.379H66.6484V7.83844H70.1079V4.379Z" fill="black"/>
<path d="M38.9711 7.83865H35.5117V11.2981H38.9711V7.83865Z" fill="black"/>
<path d="M45.8911 7.83865H42.4316V11.2981H45.8911V7.83865Z" fill="black"/>
<path d="M52.8091 7.83865H49.3496V11.2981H52.8091V7.83865Z" fill="black"/>
<path d="M56.27 7.83865H52.8105V11.2981H56.27V7.83865Z" fill="black"/>
<path d="M59.729 7.83865H56.2695V11.2981H59.729V7.83865Z" fill="black"/>
<path d="M63.188 7.83865H59.7285V11.2981H63.188V7.83865Z" fill="black"/>
<path d="M66.647 7.83865H63.1875V11.2981H66.647V7.83865Z" fill="black"/>
<path d="M70.1079 7.83865H66.6484V11.2981H70.1079V7.83865Z" fill="black"/>
<path d="M77.026 7.83865H73.5664V11.2981H77.026V7.83865Z" fill="black"/>
<path d="M83.9458 7.83865H80.4863V11.2981H83.9458V7.83865Z" fill="black"/>
<path d="M32.0532 11.2983H28.5938V14.7578H32.0532V11.2983Z" fill="black"/>
<path d="M35.5123 11.2983H32.0527V14.7578H35.5123V11.2983Z" fill="black"/>
<path d="M42.4321 11.2983H38.9727V14.7578H42.4321V11.2983Z" fill="black"/>
<path d="M45.8911 11.2983H42.4316V14.7578H45.8911V11.2983Z" fill="black"/>
<path d="M59.729 11.2983H56.2695V14.7578H59.729V11.2983Z" fill="black"/>
<path d="M63.188 11.2983H59.7285V14.7578H63.188V11.2983Z" fill="black"/>
<path d="M77.026 11.2983H73.5664V14.7578H77.026V11.2983Z" fill="black"/>
<path d="M80.4847 11.2983H77.0254V14.7578H80.4847V11.2983Z" fill="black"/>
<path d="M32.0532 14.7567H28.5938V18.2162H32.0532V14.7567Z" fill="black"/>
<path d="M35.5123 14.7567H32.0527V18.2162H35.5123V14.7567Z" fill="black"/>
<path d="M59.729 14.7567H56.2695V18.2162H59.729V14.7567Z" fill="black"/>
<path d="M63.188 14.7567H59.7285V18.2162H63.188V14.7567Z" fill="black"/>
<path d="M70.1079 14.7567H66.6484V18.2162H70.1079V14.7567Z" fill="black"/>
<path d="M77.026 14.7567H73.5664V18.2162H77.026V14.7567Z" fill="black"/>
<path d="M80.4847 14.7567H77.0254V18.2162H80.4847V14.7567Z" fill="black"/>
<path d="M32.0532 18.2164H28.5938V21.6758H32.0532V18.2164Z" fill="black"/>
<path d="M35.5123 18.2164H32.0527V21.6758H35.5123V18.2164Z" fill="black"/>
<path d="M38.9711 18.2164H35.5117V21.6758H38.9711V18.2164Z" fill="black"/>
<path d="M45.8911 18.2164H42.4316V21.6758H45.8911V18.2164Z" fill="black"/>
<path d="M56.27 18.2164H52.8105V21.6758H56.27V18.2164Z" fill="black"/>
<path d="M63.188 18.2164H59.7285V21.6758H63.188V18.2164Z" fill="black"/>
<path d="M73.5669 18.2164H70.1074V21.6758H73.5669V18.2164Z" fill="black"/>
<path d="M77.026 18.2164H73.5664V21.6758H77.026V18.2164Z" fill="black"/>
<path d="M80.4847 18.2164H77.0254V21.6758H80.4847V18.2164Z" fill="black"/>
<path d="M83.9458 18.2164H80.4863V21.6758H83.9458V18.2164Z" fill="black"/>
<path d="M87.4048 18.2164H83.9453V21.6758H87.4048V18.2164Z" fill="black"/>
<path d="M32.0532 21.676H28.5938V25.1355H32.0532V21.676Z" fill="black"/>
<path d="M38.9711 21.676H35.5117V25.1355H38.9711V21.676Z" fill="black"/>
<path d="M45.8911 21.676H42.4316V25.1355H45.8911V21.676Z" fill="black"/>
<path d="M52.8091 21.676H49.3496V25.1355H52.8091V21.676Z" fill="black"/>
<path d="M59.729 21.676H56.2695V25.1355H59.729V21.676Z" fill="black"/>
<path d="M66.647 21.676H63.1875V25.1355H66.647V21.676Z" fill="black"/>
<path d="M73.5669 21.676H70.1074V25.1355H73.5669V21.676Z" fill="black"/>
<path d="M80.4847 21.676H77.0254V25.1355H80.4847V21.676Z" fill="black"/>
<path d="M87.4048 21.676H83.9453V25.1355H87.4048V21.676Z" fill="black"/>
<path d="M32.0532 25.1357H28.5938V28.5952H32.0532V25.1357Z" fill="black"/>
<path d="M42.4321 25.1357H38.9727V28.5952H42.4321V25.1357Z" fill="black"/>
<path d="M52.8091 25.1357H49.3496V28.5952H52.8091V25.1357Z" fill="black"/>
<path d="M63.188 25.1357H59.7285V28.5952H63.188V25.1357Z" fill="black"/>
<path d="M66.647 25.1357H63.1875V28.5952H66.647V25.1357Z" fill="black"/>
<path d="M70.1079 25.1357H66.6484V28.5952H70.1079V25.1357Z" fill="black"/>
<path d="M73.5669 25.1357H70.1074V28.5952H73.5669V25.1357Z" fill="black"/>
<path d="M77.026 25.1357H73.5664V28.5952H77.026V25.1357Z" fill="black"/>
<path d="M87.4048 25.1357H83.9453V28.5952H87.4048V25.1357Z" fill="black"/>
<path d="M4.37744 28.5954H0.917969V32.0548H4.37744V28.5954Z" fill="black"/>
<path d="M18.2153 28.5954H14.7559V32.0548H18.2153V28.5954Z" fill="black"/>
<path d="M25.1333 28.5954H21.6738V32.0548H25.1333V28.5954Z" fill="black"/>
<path d="M28.5942 28.5954H25.1348V32.0548H28.5942V28.5954Z" fill="black"/>
<path d="M32.0532 28.5954H28.5938V32.0548H32.0532V28.5954Z" fill="black"/>
<path d="M38.9711 28.5954H35.5117V32.0548H38.9711V28.5954Z" fill="black"/>
<path d="M45.8911 28.5954H42.4316V32.0548H45.8911V28.5954Z" fill="black"/>
<path d="M56.27 28.5954H52.8105V32.0548H56.27V28.5954Z" fill="black"/>
<path d="M63.188 28.5954H59.7285V32.0548H63.188V28.5954Z" fill="black"/>
<path d="M73.5669 28.5954H70.1074V32.0548H73.5669V28.5954Z" fill="black"/>
<path d="M77.026 28.5954H73.5664V32.0548H77.026V28.5954Z" fill="black"/>
<path d="M80.4847 28.5954H77.0254V32.0548H80.4847V28.5954Z" fill="black"/>
<path d="M83.9458 28.5954H80.4863V32.0548H83.9458V28.5954Z" fill="black"/>
<path d="M90.8638 28.5954H87.4043V32.0548H90.8638V28.5954Z" fill="black"/>
<path d="M94.3227 28.5954H90.8633V32.0548H94.3227V28.5954Z" fill="black"/>
<path d="M97.7837 28.5954H94.3242V32.0548H97.7837V28.5954Z" fill="black"/>
<path d="M101.243 28.5954H97.7832V32.0548H101.243V28.5954Z" fill="black"/>
<path d="M104.702 28.5954H101.242V32.0548H104.702V28.5954Z" fill="black"/>
<path d="M115.081 28.5954H111.621V32.0548H115.081V28.5954Z" fill="black"/>
<path d="M7.8364 32.055H4.37695V35.5146H7.8364V32.055Z" fill="black"/>
<path d="M21.6743 32.055H18.2148V35.5146H21.6743V32.055Z" fill="black"/>
<path d="M28.5942 32.055H25.1348V35.5146H28.5942V32.055Z" fill="black"/>
<path d="M38.9711 32.055H35.5117V35.5146H38.9711V32.055Z" fill="black"/>
<path d="M42.4321 32.055H38.9727V35.5146H42.4321V32.055Z" fill="black"/>
<path d="M56.27 32.055H52.8105V35.5146H56.27V32.055Z" fill="black"/>
<path d="M59.729 32.055H56.2695V35.5146H59.729V32.055Z" fill="black"/>
<path d="M63.188 32.055H59.7285V35.5146H63.188V32.055Z" fill="black"/>
<path d="M66.647 32.055H63.1875V35.5146H66.647V32.055Z" fill="black"/>
<path d="M77.026 32.055H73.5664V35.5146H77.026V32.055Z" fill="black"/>
<path d="M80.4847 32.055H77.0254V35.5146H80.4847V32.055Z" fill="black"/>
<path d="M83.9458 32.055H80.4863V35.5146H83.9458V32.055Z" fill="black"/>
<path d="M90.8638 32.055H87.4043V35.5146H90.8638V32.055Z" fill="black"/>
<path d="M104.702 32.055H101.242V35.5146H104.702V32.055Z" fill="black"/>
<path d="M108.161 32.055H104.701V35.5146H108.161V32.055Z" fill="black"/>
<path d="M115.081 32.055H111.621V35.5146H115.081V32.055Z" fill="black"/>
<path d="M4.37744 35.5135H0.917969V38.9729H4.37744V35.5135Z" fill="black"/>
<path d="M11.2954 35.5135H7.83594V38.9729H11.2954V35.5135Z" fill="black"/>
<path d="M18.2153 35.5135H14.7559V38.9729H18.2153V35.5135Z" fill="black"/>
<path d="M21.6743 35.5135H18.2148V38.9729H21.6743V35.5135Z" fill="black"/>
<path d="M25.1333 35.5135H21.6738V38.9729H25.1333V35.5135Z" fill="black"/>
<path d="M28.5942 35.5135H25.1348V38.9729H28.5942V35.5135Z" fill="black"/>
<path d="M32.0532 35.5135H28.5938V38.9729H32.0532V35.5135Z" fill="black"/>
<path d="M49.3501 35.5135H45.8906V38.9729H49.3501V35.5135Z" fill="black"/>
<path d="M52.8091 35.5135H49.3496V38.9729H52.8091V35.5135Z" fill="black"/>
<path d="M56.27 35.5135H52.8105V38.9729H56.27V35.5135Z" fill="black"/>
<path d="M66.647 35.5135H63.1875V38.9729H66.647V35.5135Z" fill="black"/>
<path d="M83.9458 35.5135H80.4863V38.9729H83.9458V35.5135Z" fill="black"/>
<path d="M90.8638 35.5135H87.4043V38.9729H90.8638V35.5135Z" fill="black"/>
<path d="M104.702 35.5135H101.242V38.9729H104.702V35.5135Z" fill="black"/>
<path d="M111.622 35.5135H108.162V38.9729H111.622V35.5135Z" fill="black"/>
<path d="M11.2954 38.9731H7.83594V42.4326H11.2954V38.9731Z" fill="black"/>
<path d="M18.2153 38.9731H14.7559V42.4326H18.2153V38.9731Z" fill="black"/>
<path d="M28.5942 38.9731H25.1348V42.4326H28.5942V38.9731Z" fill="black"/>
<path d="M38.9711 38.9731H35.5117V42.4326H38.9711V38.9731Z" fill="black"/>
<path d="M45.8911 38.9731H42.4316V42.4326H45.8911V38.9731Z" fill="black"/>
<path d="M49.3501 38.9731H45.8906V42.4326H49.3501V38.9731Z" fill="black"/>
<path d="M59.729 38.9731H56.2695V42.4326H59.729V38.9731Z" fill="black"/>
<path d="M70.1079 38.9731H66.6484V42.4326H70.1079V38.9731Z" fill="black"/>
<path d="M73.5669 38.9731H70.1074V42.4326H73.5669V38.9731Z" fill="black"/>
<path d="M80.4847 38.9731H77.0254V42.4326H80.4847V38.9731Z" fill="black"/>
<path d="M87.4048 38.9731H83.9453V42.4326H87.4048V38.9731Z" fill="black"/>
<path d="M90.8638 38.9731H87.4043V42.4326H90.8638V38.9731Z" fill="black"/>
<path d="M94.3227 38.9731H90.8633V42.4326H94.3227V38.9731Z" fill="black"/>
<path d="M4.37744 42.4328H0.917969V45.8922H4.37744V42.4328Z" fill="black"/>
<path d="M11.2954 42.4328H7.83594V45.8922H11.2954V42.4328Z" fill="black"/>
<path d="M14.7564 42.4328H11.2969V45.8922H14.7564V42.4328Z" fill="black"/>
<path d="M25.1333 42.4328H21.6738V45.8922H25.1333V42.4328Z" fill="black"/>
<path d="M32.0532 42.4328H28.5938V45.8922H32.0532V42.4328Z" fill="black"/>
<path d="M38.9711 42.4328H35.5117V45.8922H38.9711V42.4328Z" fill="black"/>
<path d="M45.8911 42.4328H42.4316V45.8922H45.8911V42.4328Z" fill="black"/>
<path d="M49.3501 42.4328H45.8906V45.8922H49.3501V42.4328Z" fill="black"/>
<path d="M59.729 42.4328H56.2695V45.8922H59.729V42.4328Z" fill="black"/>
<path d="M80.4847 42.4328H77.0254V45.8922H80.4847V42.4328Z" fill="black"/>
<path d="M83.9458 42.4328H80.4863V45.8922H83.9458V42.4328Z" fill="black"/>
<path d="M87.4048 42.4328H83.9453V45.8922H87.4048V42.4328Z" fill="black"/>
<path d="M94.3227 42.4328H90.8633V45.8922H94.3227V42.4328Z" fill="black"/>
<path d="M97.7837 42.4328H94.3242V45.8922H97.7837V42.4328Z" fill="black"/>
<path d="M104.702 42.4328H101.242V45.8922H104.702V42.4328Z" fill="black"/>
<path d="M115.081 42.4328H111.621V45.8922H115.081V42.4328Z" fill="black"/>
<path d="M4.37744 45.8924H0.917969V49.3519H4.37744V45.8924Z" fill="black"/>
<path d="M11.2954 45.8924H7.83594V49.3519H11.2954V45.8924Z" fill="black"/>
<path d="M14.7564 45.8924H11.2969V49.3519H14.7564V45.8924Z" fill="black"/>
<path d="M18.2153 45.8924H14.7559V49.3519H18.2153V45.8924Z" fill="black"/>
<path d="M21.6743 45.8924H18.2148V49.3519H21.6743V45.8924Z" fill="black"/>
<path d="M28.5942 45.8924H25.1348V49.3519H28.5942V45.8924Z" fill="black"/>
<path d="M38.9711 45.8924H35.5117V49.3519H38.9711V45.8924Z" fill="black"/>
<path d="M42.4321 45.8924H38.9727V49.3519H42.4321V45.8924Z" fill="black"/>
<path d="M52.8091 45.8924H49.3496V49.3519H52.8091V45.8924Z" fill="black"/>
<path d="M63.188 45.8924H59.7285V49.3519H63.188V45.8924Z" fill="black"/>
<path d="M66.647 45.8924H63.1875V49.3519H66.647V45.8924Z" fill="black"/>
<path d="M70.1079 45.8924H66.6484V49.3519H70.1079V45.8924Z" fill="black"/>
<path d="M73.5669 45.8924H70.1074V49.3519H73.5669V45.8924Z" fill="black"/>
<path d="M87.4048 45.8924H83.9453V49.3519H87.4048V45.8924Z" fill="black"/>
<path d="M90.8638 45.8924H87.4043V49.3519H90.8638V45.8924Z" fill="black"/>
<path d="M97.7837 45.8924H94.3242V49.3519H97.7837V45.8924Z" fill="black"/>
<path d="M108.161 45.8924H104.701V49.3519H108.161V45.8924Z" fill="black"/>
<path d="M11.2954 49.3521H7.83594V52.8116H11.2954V49.3521Z" fill="black"/>
<path d="M18.2153 49.3521H14.7559V52.8116H18.2153V49.3521Z" fill="black"/>
<path d="M21.6743 49.3521H18.2148V52.8116H21.6743V49.3521Z" fill="black"/>
<path d="M25.1333 49.3521H21.6738V52.8116H25.1333V49.3521Z" fill="black"/>
<path d="M38.9711 49.3521H35.5117V52.8116H38.9711V49.3521Z" fill="black"/>
<path d="M42.4321 49.3521H38.9727V52.8116H42.4321V49.3521Z" fill="black"/>
<path d="M45.8911 49.3521H42.4316V52.8116H45.8911V49.3521Z" fill="black"/>
<path d="M52.8091 49.3521H49.3496V52.8116H52.8091V49.3521Z" fill="black"/>
<path d="M56.27 49.3521H52.8105V52.8116H56.27V49.3521Z" fill="black"/>
<path d="M63.188 49.3521H59.7285V52.8116H63.188V49.3521Z" fill="black"/>
<path d="M66.647 49.3521H63.1875V52.8116H66.647V49.3521Z" fill="black"/>
<path d="M73.5669 49.3521H70.1074V52.8116H73.5669V49.3521Z" fill="black"/>
<path d="M77.026 49.3521H73.5664V52.8116H77.026V49.3521Z" fill="black"/>
<path d="M83.9458 49.3521H80.4863V52.8116H83.9458V49.3521Z" fill="black"/>
<path d="M87.4048 49.3521H83.9453V52.8116H87.4048V49.3521Z" fill="black"/>
<path d="M90.8638 49.3521H87.4043V52.8116H90.8638V49.3521Z" fill="black"/>
<path d="M94.3227 49.3521H90.8633V52.8116H94.3227V49.3521Z" fill="black"/>
<path d="M101.243 49.3521H97.7832V52.8116H101.243V49.3521Z" fill="black"/>
<path d="M111.622 49.3521H108.162V52.8116H111.622V49.3521Z" fill="black"/>
<path d="M4.37744 52.8118H0.917969V56.2712H4.37744V52.8118Z" fill="black"/>
<path d="M7.8364 52.8118H4.37695V56.2712H7.8364V52.8118Z" fill="black"/>
<path d="M11.2954 52.8118H7.83594V56.2712H11.2954V52.8118Z" fill="black"/>
<path d="M14.7564 52.8118H11.2969V56.2712H14.7564V52.8118Z" fill="black"/>
<path d="M18.2153 52.8118H14.7559V56.2712H18.2153V52.8118Z" fill="black"/>
<path d="M28.5942 52.8118H25.1348V56.2712H28.5942V52.8118Z" fill="black"/>
<path d="M38.9711 52.8118H35.5117V56.2712H38.9711V52.8118Z" fill="black"/>
<path d="M42.4321 52.8118H38.9727V56.2712H42.4321V52.8118Z" fill="black"/>
<path d="M49.3501 52.8118H45.8906V56.2712H49.3501V52.8118Z" fill="black"/>
<path d="M52.8091 52.8118H49.3496V56.2712H52.8091V52.8118Z" fill="black"/>
<path d="M56.27 52.8118H52.8105V56.2712H56.27V52.8118Z" fill="black"/>
<path d="M59.729 52.8118H56.2695V56.2712H59.729V52.8118Z" fill="black"/>
<path d="M63.188 52.8118H59.7285V56.2712H63.188V52.8118Z" fill="black"/>
<path d="M66.647 52.8118H63.1875V56.2712H66.647V52.8118Z" fill="black"/>
<path d="M77.026 52.8118H73.5664V56.2712H77.026V52.8118Z" fill="black"/>
<path d="M83.9458 52.8118H80.4863V56.2712H83.9458V52.8118Z" fill="black"/>
<path d="M90.8638 52.8118H87.4043V56.2712H90.8638V52.8118Z" fill="black"/>
<path d="M94.3227 52.8118H90.8633V56.2712H94.3227V52.8118Z" fill="black"/>
<path d="M97.7837 52.8118H94.3242V56.2712H97.7837V52.8118Z" fill="black"/>
<path d="M4.37744 56.2702H0.917969V59.7296H4.37744V56.2702Z" fill="black"/>
<path d="M7.8364 56.2702H4.37695V59.7296H7.8364V56.2702Z" fill="black"/>
<path d="M14.7564 56.2702H11.2969V59.7296H14.7564V56.2702Z" fill="black"/>
<path d="M18.2153 56.2702H14.7559V59.7296H18.2153V56.2702Z" fill="black"/>
<path d="M21.6743 56.2702H18.2148V59.7296H21.6743V56.2702Z" fill="black"/>
<path d="M25.1333 56.2702H21.6738V59.7296H25.1333V56.2702Z" fill="black"/>
<path d="M32.0532 56.2702H28.5938V59.7296H32.0532V56.2702Z" fill="black"/>
<path d="M35.5123 56.2702H32.0527V59.7296H35.5123V56.2702Z" fill="black"/>
<path d="M45.8911 56.2702H42.4316V59.7296H45.8911V56.2702Z" fill="black"/>
<path d="M63.188 56.2702H59.7285V59.7296H63.188V56.2702Z" fill="black"/>
<path d="M66.647 56.2702H63.1875V59.7296H66.647V56.2702Z" fill="black"/>
<path d="M70.1079 56.2702H66.6484V59.7296H70.1079V56.2702Z" fill="black"/>
<path d="M73.5669 56.2702H70.1074V59.7296H73.5669V56.2702Z" fill="black"/>
<path d="M77.026 56.2702H73.5664V59.7296H77.026V56.2702Z" fill="black"/>
<path d="M80.4847 56.2702H77.0254V59.7296H80.4847V56.2702Z" fill="black"/>
<path d="M87.4048 56.2702H83.9453V59.7296H87.4048V56.2702Z" fill="black"/>
<path d="M94.3227 56.2702H90.8633V59.7296H94.3227V56.2702Z" fill="black"/>
<path d="M101.243 56.2702H97.7832V59.7296H101.243V56.2702Z" fill="black"/>
<path d="M104.702 56.2702H101.242V59.7296H104.702V56.2702Z" fill="black"/>
<path d="M111.622 56.2702H108.162V59.7296H111.622V56.2702Z" fill="black"/>
<path d="M4.37744 59.7298H0.917969V63.1893H4.37744V59.7298Z" fill="black"/>
<path d="M7.8364 59.7298H4.37695V63.1893H7.8364V59.7298Z" fill="black"/>
<path d="M18.2153 59.7298H14.7559V63.1893H18.2153V59.7298Z" fill="black"/>
<path d="M21.6743 59.7298H18.2148V63.1893H21.6743V59.7298Z" fill="black"/>
<path d="M28.5942 59.7298H25.1348V63.1893H28.5942V59.7298Z" fill="black"/>
<path d="M32.0532 59.7298H28.5938V63.1893H32.0532V59.7298Z" fill="black"/>
<path d="M35.5123 59.7298H32.0527V63.1893H35.5123V59.7298Z" fill="black"/>
<path d="M38.9711 59.7298H35.5117V63.1893H38.9711V59.7298Z" fill="black"/>
<path d="M56.27 59.7298H52.8105V63.1893H56.27V59.7298Z" fill="black"/>
<path d="M59.729 59.7298H56.2695V63.1893H59.729V59.7298Z" fill="black"/>
<path d="M66.647 59.7298H63.1875V63.1893H66.647V59.7298Z" fill="black"/>
<path d="M73.5669 59.7298H70.1074V63.1893H73.5669V59.7298Z" fill="black"/>
<path d="M80.4847 59.7298H77.0254V63.1893H80.4847V59.7298Z" fill="black"/>
<path d="M83.9458 59.7298H80.4863V63.1893H83.9458V59.7298Z" fill="black"/>
<path d="M87.4048 59.7298H83.9453V63.1893H87.4048V59.7298Z" fill="black"/>
<path d="M104.702 59.7298H101.242V63.1893H104.702V59.7298Z" fill="black"/>
<path d="M108.161 59.7298H104.701V63.1893H108.161V59.7298Z" fill="black"/>
<path d="M111.622 59.7298H108.162V63.1893H111.622V59.7298Z" fill="black"/>
<path d="M4.37744 63.1895H0.917969V66.649H4.37744V63.1895Z" fill="black"/>
<path d="M11.2954 63.1895H7.83594V66.649H11.2954V63.1895Z" fill="black"/>
<path d="M14.7564 63.1895H11.2969V66.649H14.7564V63.1895Z" fill="black"/>
<path d="M18.2153 63.1895H14.7559V66.649H18.2153V63.1895Z" fill="black"/>
<path d="M25.1333 63.1895H21.6738V66.649H25.1333V63.1895Z" fill="black"/>
<path d="M28.5942 63.1895H25.1348V66.649H28.5942V63.1895Z" fill="black"/>
<path d="M38.9711 63.1895H35.5117V66.649H38.9711V63.1895Z" fill="black"/>
<path d="M45.8911 63.1895H42.4316V66.649H45.8911V63.1895Z" fill="black"/>
<path d="M49.3501 63.1895H45.8906V66.649H49.3501V63.1895Z" fill="black"/>
<path d="M56.27 63.1895H52.8105V66.649H56.27V63.1895Z" fill="black"/>
<path d="M59.729 63.1895H56.2695V66.649H59.729V63.1895Z" fill="black"/>
<path d="M63.188 63.1895H59.7285V66.649H63.188V63.1895Z" fill="black"/>
<path d="M73.5669 63.1895H70.1074V66.649H73.5669V63.1895Z" fill="black"/>
<path d="M77.026 63.1895H73.5664V66.649H77.026V63.1895Z" fill="black"/>
<path d="M80.4847 63.1895H77.0254V66.649H80.4847V63.1895Z" fill="black"/>
<path d="M83.9458 63.1895H80.4863V66.649H83.9458V63.1895Z" fill="black"/>
<path d="M87.4048 63.1895H83.9453V66.649H87.4048V63.1895Z" fill="black"/>
<path d="M90.8638 63.1895H87.4043V66.649H90.8638V63.1895Z" fill="black"/>
<path d="M97.7837 63.1895H94.3242V66.649H97.7837V63.1895Z" fill="black"/>
<path d="M104.702 63.1895H101.242V66.649H104.702V63.1895Z" fill="black"/>
<path d="M111.622 63.1895H108.162V66.649H111.622V63.1895Z" fill="black"/>
<path d="M7.8364 66.6492H4.37695V70.1086H7.8364V66.6492Z" fill="black"/>
<path d="M11.2954 66.6492H7.83594V70.1086H11.2954V66.6492Z" fill="black"/>
<path d="M18.2153 66.6492H14.7559V70.1086H18.2153V66.6492Z" fill="black"/>
<path d="M28.5942 66.6492H25.1348V70.1086H28.5942V66.6492Z" fill="black"/>
<path d="M38.9711 66.6492H35.5117V70.1086H38.9711V66.6492Z" fill="black"/>
<path d="M45.8911 66.6492H42.4316V70.1086H45.8911V66.6492Z" fill="black"/>
<path d="M49.3501 66.6492H45.8906V70.1086H49.3501V66.6492Z" fill="black"/>
<path d="M56.27 66.6492H52.8105V70.1086H56.27V66.6492Z" fill="black"/>
<path d="M63.188 66.6492H59.7285V70.1086H63.188V66.6492Z" fill="black"/>
<path d="M66.647 66.6492H63.1875V70.1086H66.647V66.6492Z" fill="black"/>
<path d="M73.5669 66.6492H70.1074V70.1086H73.5669V66.6492Z" fill="black"/>
<path d="M77.026 66.6492H73.5664V70.1086H77.026V66.6492Z" fill="black"/>
<path d="M87.4048 66.6492H83.9453V70.1086H87.4048V66.6492Z" fill="black"/>
<path d="M90.8638 66.6492H87.4043V70.1086H90.8638V66.6492Z" fill="black"/>
<path d="M94.3227 66.6492H90.8633V70.1086H94.3227V66.6492Z" fill="black"/>
<path d="M97.7837 66.6492H94.3242V70.1086H97.7837V66.6492Z" fill="black"/>
<path d="M111.622 66.6492H108.162V70.1086H111.622V66.6492Z" fill="black"/>
<path d="M4.37744 70.1088H0.917969V73.5683H4.37744V70.1088Z" fill="black"/>
<path d="M11.2954 70.1088H7.83594V73.5683H11.2954V70.1088Z" fill="black"/>
<path d="M21.6743 70.1088H18.2148V73.5683H21.6743V70.1088Z" fill="black"/>
<path d="M25.1333 70.1088H21.6738V73.5683H25.1333V70.1088Z" fill="black"/>
<path d="M28.5942 70.1088H25.1348V73.5683H28.5942V70.1088Z" fill="black"/>
<path d="M35.5123 70.1088H32.0527V73.5683H35.5123V70.1088Z" fill="black"/>
<path d="M42.4321 70.1088H38.9727V73.5683H42.4321V70.1088Z" fill="black"/>
<path d="M49.3501 70.1088H45.8906V73.5683H49.3501V70.1088Z" fill="black"/>
<path d="M52.8091 70.1088H49.3496V73.5683H52.8091V70.1088Z" fill="black"/>
<path d="M66.647 70.1088H63.1875V73.5683H66.647V70.1088Z" fill="black"/>
<path d="M70.1079 70.1088H66.6484V73.5683H70.1079V70.1088Z" fill="black"/>
<path d="M73.5669 70.1088H70.1074V73.5683H73.5669V70.1088Z" fill="black"/>
<path d="M94.3227 70.1088H90.8633V73.5683H94.3227V70.1088Z" fill="black"/>
<path d="M97.7837 70.1088H94.3242V73.5683H97.7837V70.1088Z" fill="black"/>
<path d="M101.243 70.1088H97.7832V73.5683H101.243V70.1088Z" fill="black"/>
<path d="M104.702 70.1088H101.242V73.5683H104.702V70.1088Z" fill="black"/>
<path d="M4.37744 73.5685H0.917969V77.0281H4.37744V73.5685Z" fill="black"/>
<path d="M14.7564 73.5685H11.2969V77.0281H14.7564V73.5685Z" fill="black"/>
<path d="M21.6743 73.5685H18.2148V77.0281H21.6743V73.5685Z" fill="black"/>
<path d="M45.8911 73.5685H42.4316V77.0281H45.8911V73.5685Z" fill="black"/>
<path d="M59.729 73.5685H56.2695V77.0281H59.729V73.5685Z" fill="black"/>
<path d="M63.188 73.5685H59.7285V77.0281H63.188V73.5685Z" fill="black"/>
<path d="M70.1079 73.5685H66.6484V77.0281H70.1079V73.5685Z" fill="black"/>
<path d="M80.4847 73.5685H77.0254V77.0281H80.4847V73.5685Z" fill="black"/>
<path d="M94.3227 73.5685H90.8633V77.0281H94.3227V73.5685Z" fill="black"/>
<path d="M104.702 73.5685H101.242V77.0281H104.702V73.5685Z" fill="black"/>
<path d="M108.161 73.5685H104.701V77.0281H108.161V73.5685Z" fill="black"/>
<path d="M111.622 73.5685H108.162V77.0281H111.622V73.5685Z" fill="black"/>
<path d="M18.2153 77.0269H14.7559V80.4863H18.2153V77.0269Z" fill="black"/>
<path d="M21.6743 77.0269H18.2148V80.4863H21.6743V77.0269Z" fill="black"/>
<path d="M25.1333 77.0269H21.6738V80.4863H25.1333V77.0269Z" fill="black"/>
<path d="M28.5942 77.0269H25.1348V80.4863H28.5942V77.0269Z" fill="black"/>
<path d="M42.4321 77.0269H38.9727V80.4863H42.4321V77.0269Z" fill="black"/>
<path d="M45.8911 77.0269H42.4316V80.4863H45.8911V77.0269Z" fill="black"/>
<path d="M52.8091 77.0269H49.3496V80.4863H52.8091V77.0269Z" fill="black"/>
<path d="M59.729 77.0269H56.2695V80.4863H59.729V77.0269Z" fill="black"/>
<path d="M66.647 77.0269H63.1875V80.4863H66.647V77.0269Z" fill="black"/>
<path d="M70.1079 77.0269H66.6484V80.4863H70.1079V77.0269Z" fill="black"/>
<path d="M77.026 77.0269H73.5664V80.4863H77.026V77.0269Z" fill="black"/>
<path d="M83.9458 77.0269H80.4863V80.4863H83.9458V77.0269Z" fill="black"/>
<path d="M87.4048 77.0269H83.9453V80.4863H87.4048V77.0269Z" fill="black"/>
<path d="M90.8638 77.0269H87.4043V80.4863H90.8638V77.0269Z" fill="black"/>
<path d="M108.161 77.0269H104.701V80.4863H108.161V77.0269Z" fill="black"/>
<path d="M111.622 77.0269H108.162V80.4863H111.622V77.0269Z" fill="black"/>
<path d="M14.7564 80.4866H11.2969V83.946H14.7564V80.4866Z" fill="black"/>
<path d="M18.2153 80.4866H14.7559V83.946H18.2153V80.4866Z" fill="black"/>
<path d="M21.6743 80.4866H18.2148V83.946H21.6743V80.4866Z" fill="black"/>
<path d="M28.5942 80.4866H25.1348V83.946H28.5942V80.4866Z" fill="black"/>
<path d="M32.0532 80.4866H28.5938V83.946H32.0532V80.4866Z" fill="black"/>
<path d="M38.9711 80.4866H35.5117V83.946H38.9711V80.4866Z" fill="black"/>
<path d="M49.3501 80.4866H45.8906V83.946H49.3501V80.4866Z" fill="black"/>
<path d="M63.188 80.4866H59.7285V83.946H63.188V80.4866Z" fill="black"/>
<path d="M66.647 80.4866H63.1875V83.946H66.647V80.4866Z" fill="black"/>
<path d="M70.1079 80.4866H66.6484V83.946H70.1079V80.4866Z" fill="black"/>
<path d="M73.5669 80.4866H70.1074V83.946H73.5669V80.4866Z" fill="black"/>
<path d="M77.026 80.4866H73.5664V83.946H77.026V80.4866Z" fill="black"/>
<path d="M80.4847 80.4866H77.0254V83.946H80.4847V80.4866Z" fill="black"/>
<path d="M90.8638 80.4866H87.4043V83.946H90.8638V80.4866Z" fill="black"/>
<path d="M94.3227 80.4866H90.8633V83.946H94.3227V80.4866Z" fill="black"/>
<path d="M101.243 80.4866H97.7832V83.946H101.243V80.4866Z" fill="black"/>
<path d="M104.702 80.4866H101.242V83.946H104.702V80.4866Z" fill="black"/>
<path d="M111.622 80.4866H108.162V83.946H111.622V80.4866Z" fill="black"/>
<path d="M115.081 80.4866H111.621V83.946H115.081V80.4866Z" fill="black"/>
<path d="M4.37744 83.9462H0.917969V87.4057H4.37744V83.9462Z" fill="black"/>
<path d="M7.8364 83.9462H4.37695V87.4057H7.8364V83.9462Z" fill="black"/>
<path d="M11.2954 83.9462H7.83594V87.4057H11.2954V83.9462Z" fill="black"/>
<path d="M18.2153 83.9462H14.7559V87.4057H18.2153V83.9462Z" fill="black"/>
<path d="M25.1333 83.9462H21.6738V87.4057H25.1333V83.9462Z" fill="black"/>
<path d="M28.5942 83.9462H25.1348V87.4057H28.5942V83.9462Z" fill="black"/>
<path d="M38.9711 83.9462H35.5117V87.4057H38.9711V83.9462Z" fill="black"/>
<path d="M42.4321 83.9462H38.9727V87.4057H42.4321V83.9462Z" fill="black"/>
<path d="M49.3501 83.9462H45.8906V87.4057H49.3501V83.9462Z" fill="black"/>
<path d="M52.8091 83.9462H49.3496V87.4057H52.8091V83.9462Z" fill="black"/>
<path d="M56.27 83.9462H52.8105V87.4057H56.27V83.9462Z" fill="black"/>
<path d="M59.729 83.9462H56.2695V87.4057H59.729V83.9462Z" fill="black"/>
<path d="M63.188 83.9462H59.7285V87.4057H63.188V83.9462Z" fill="black"/>
<path d="M73.5669 83.9462H70.1074V87.4057H73.5669V83.9462Z" fill="black"/>
<path d="M77.026 83.9462H73.5664V87.4057H77.026V83.9462Z" fill="black"/>
<path d="M80.4847 83.9462H77.0254V87.4057H80.4847V83.9462Z" fill="black"/>
<path d="M87.4048 83.9462H83.9453V87.4057H87.4048V83.9462Z" fill="black"/>
<path d="M90.8638 83.9462H87.4043V87.4057H90.8638V83.9462Z" fill="black"/>
<path d="M94.3227 83.9462H90.8633V87.4057H94.3227V83.9462Z" fill="black"/>
<path d="M97.7837 83.9462H94.3242V87.4057H97.7837V83.9462Z" fill="black"/>
<path d="M101.243 83.9462H97.7832V87.4057H101.243V83.9462Z" fill="black"/>
<path d="M104.702 83.9462H101.242V87.4057H104.702V83.9462Z" fill="black"/>
<path d="M111.622 83.9462H108.162V87.4057H111.622V83.9462Z" fill="black"/>
<path d="M32.0532 87.4059H28.5938V90.8653H32.0532V87.4059Z" fill="black"/>
<path d="M38.9711 87.4059H35.5117V90.8653H38.9711V87.4059Z" fill="black"/>
<path d="M42.4321 87.4059H38.9727V90.8653H42.4321V87.4059Z" fill="black"/>
<path d="M49.3501 87.4059H45.8906V90.8653H49.3501V87.4059Z" fill="black"/>
<path d="M52.8091 87.4059H49.3496V90.8653H52.8091V87.4059Z" fill="black"/>
<path d="M56.27 87.4059H52.8105V90.8653H56.27V87.4059Z" fill="black"/>
<path d="M59.729 87.4059H56.2695V90.8653H59.729V87.4059Z" fill="black"/>
<path d="M63.188 87.4059H59.7285V90.8653H63.188V87.4059Z" fill="black"/>
<path d="M77.026 87.4059H73.5664V90.8653H77.026V87.4059Z" fill="black"/>
<path d="M80.4847 87.4059H77.0254V90.8653H80.4847V87.4059Z" fill="black"/>
<path d="M83.9458 87.4059H80.4863V90.8653H83.9458V87.4059Z" fill="black"/>
<path d="M87.4048 87.4059H83.9453V90.8653H87.4048V87.4059Z" fill="black"/>
<path d="M101.243 87.4059H97.7832V90.8653H101.243V87.4059Z" fill="black"/>
<path d="M108.161 87.4059H104.701V90.8653H108.161V87.4059Z" fill="black"/>
<path d="M32.0532 90.8655H28.5938V94.325H32.0532V90.8655Z" fill="black"/>
<path d="M35.5123 90.8655H32.0527V94.325H35.5123V90.8655Z" fill="black"/>
<path d="M38.9711 90.8655H35.5117V94.325H38.9711V90.8655Z" fill="black"/>
<path d="M52.8091 90.8655H49.3496V94.325H52.8091V90.8655Z" fill="black"/>
<path d="M56.27 90.8655H52.8105V94.325H56.27V90.8655Z" fill="black"/>
<path d="M66.647 90.8655H63.1875V94.325H66.647V90.8655Z" fill="black"/>
<path d="M87.4048 90.8655H83.9453V94.325H87.4048V90.8655Z" fill="black"/>
<path d="M94.3227 90.8655H90.8633V94.325H94.3227V90.8655Z" fill="black"/>
<path d="M101.243 90.8655H97.7832V94.325H101.243V90.8655Z" fill="black"/>
<path d="M104.702 90.8655H101.242V94.325H104.702V90.8655Z" fill="black"/>
<path d="M42.4321 94.3252H38.9727V97.7847H42.4321V94.3252Z" fill="black"/>
<path d="M52.8091 94.3252H49.3496V97.7847H52.8091V94.3252Z" fill="black"/>
<path d="M56.27 94.3252H52.8105V97.7847H56.27V94.3252Z" fill="black"/>
<path d="M59.729 94.3252H56.2695V97.7847H59.729V94.3252Z" fill="black"/>
<path d="M70.1079 94.3252H66.6484V97.7847H70.1079V94.3252Z" fill="black"/>
<path d="M80.4847 94.3252H77.0254V97.7847H80.4847V94.3252Z" fill="black"/>
<path d="M87.4048 94.3252H83.9453V97.7847H87.4048V94.3252Z" fill="black"/>
<path d="M101.243 94.3252H97.7832V97.7847H101.243V94.3252Z" fill="black"/>
<path d="M115.081 94.3252H111.621V97.7847H115.081V94.3252Z" fill="black"/>
<path d="M32.0532 97.7836H28.5938V101.243H32.0532V97.7836Z" fill="black"/>
<path d="M42.4321 97.7836H38.9727V101.243H42.4321V97.7836Z" fill="black"/>
<path d="M45.8911 97.7836H42.4316V101.243H45.8911V97.7836Z" fill="black"/>
<path d="M49.3501 97.7836H45.8906V101.243H49.3501V97.7836Z" fill="black"/>
<path d="M52.8091 97.7836H49.3496V101.243H52.8091V97.7836Z" fill="black"/>
<path d="M59.729 97.7836H56.2695V101.243H59.729V97.7836Z" fill="black"/>
<path d="M70.1079 97.7836H66.6484V101.243H70.1079V97.7836Z" fill="black"/>
<path d="M80.4847 97.7836H77.0254V101.243H80.4847V97.7836Z" fill="black"/>
<path d="M87.4048 97.7836H83.9453V101.243H87.4048V97.7836Z" fill="black"/>
<path d="M90.8638 97.7836H87.4043V101.243H90.8638V97.7836Z" fill="black"/>
<path d="M94.3227 97.7836H90.8633V101.243H94.3227V97.7836Z" fill="black"/>
<path d="M97.7837 97.7836H94.3242V101.243H97.7837V97.7836Z" fill="black"/>
<path d="M101.243 97.7836H97.7832V101.243H101.243V97.7836Z" fill="black"/>
<path d="M104.702 97.7836H101.242V101.243H104.702V97.7836Z" fill="black"/>
<path d="M115.081 97.7836H111.621V101.243H115.081V97.7836Z" fill="black"/>
<path d="M35.5123 101.243H32.0527V104.703H35.5123V101.243Z" fill="black"/>
<path d="M38.9711 101.243H35.5117V104.703H38.9711V101.243Z" fill="black"/>
<path d="M45.8911 101.243H42.4316V104.703H45.8911V101.243Z" fill="black"/>
<path d="M49.3501 101.243H45.8906V104.703H49.3501V101.243Z" fill="black"/>
<path d="M66.647 101.243H63.1875V104.703H66.647V101.243Z" fill="black"/>
<path d="M70.1079 101.243H66.6484V104.703H70.1079V101.243Z" fill="black"/>
<path d="M73.5669 101.243H70.1074V104.703H73.5669V101.243Z" fill="black"/>
<path d="M83.9458 101.243H80.4863V104.703H83.9458V101.243Z" fill="black"/>
<path d="M94.3227 101.243H90.8633V104.703H94.3227V101.243Z" fill="black"/>
<path d="M97.7837 101.243H94.3242V104.703H97.7837V101.243Z" fill="black"/>
<path d="M101.243 101.243H97.7832V104.703H101.243V101.243Z" fill="black"/>
<path d="M104.702 101.243H101.242V104.703H104.702V101.243Z" fill="black"/>
<path d="M108.161 101.243H104.701V104.703H108.161V101.243Z" fill="black"/>
<path d="M111.622 101.243H108.162V104.703H111.622V101.243Z" fill="black"/>
<path d="M35.5123 104.703H32.0527V108.162H35.5123V104.703Z" fill="black"/>
<path d="M45.8911 104.703H42.4316V108.162H45.8911V104.703Z" fill="black"/>
<path d="M52.8091 104.703H49.3496V108.162H52.8091V104.703Z" fill="black"/>
<path d="M56.27 104.703H52.8105V108.162H56.27V104.703Z" fill="black"/>
<path d="M66.647 104.703H63.1875V108.162H66.647V104.703Z" fill="black"/>
<path d="M73.5669 104.703H70.1074V108.162H73.5669V104.703Z" fill="black"/>
<path d="M77.026 104.703H73.5664V108.162H77.026V104.703Z" fill="black"/>
<path d="M90.8638 104.703H87.4043V108.162H90.8638V104.703Z" fill="black"/>
<path d="M94.3227 104.703H90.8633V108.162H94.3227V104.703Z" fill="black"/>
<path d="M97.7837 104.703H94.3242V108.162H97.7837V104.703Z" fill="black"/>
<path d="M101.243 104.703H97.7832V108.162H101.243V104.703Z" fill="black"/>
<path d="M104.702 104.703H101.242V108.162H104.702V104.703Z" fill="black"/>
<path d="M42.4321 108.163H38.9727V111.622H42.4321V108.163Z" fill="black"/>
<path d="M45.8911 108.163H42.4316V111.622H45.8911V108.163Z" fill="black"/>
<path d="M49.3501 108.163H45.8906V111.622H49.3501V108.163Z" fill="black"/>
<path d="M56.27 108.163H52.8105V111.622H56.27V108.163Z" fill="black"/>
<path d="M59.729 108.163H56.2695V111.622H59.729V108.163Z" fill="black"/>
<path d="M63.188 108.163H59.7285V111.622H63.188V108.163Z" fill="black"/>
<path d="M66.647 108.163H63.1875V111.622H66.647V108.163Z" fill="black"/>
<path d="M77.026 108.163H73.5664V111.622H77.026V108.163Z" fill="black"/>
<path d="M83.9458 108.163H80.4863V111.622H83.9458V108.163Z" fill="black"/>
<path d="M87.4048 108.163H83.9453V111.622H87.4048V108.163Z" fill="black"/>
<path d="M94.3227 108.163H90.8633V111.622H94.3227V108.163Z" fill="black"/>
<path d="M32.0532 111.622H28.5938V115.082H32.0532V111.622Z" fill="black"/>
<path d="M38.9711 111.622H35.5117V115.082H38.9711V111.622Z" fill="black"/>
<path d="M63.188 111.622H59.7285V115.082H63.188V111.622Z" fill="black"/>
<path d="M70.1079 111.622H66.6484V115.082H70.1079V111.622Z" fill="black"/>
<path d="M73.5669 111.622H70.1074V115.082H73.5669V111.622Z" fill="black"/>
<path d="M77.026 111.622H73.5664V115.082H77.026V111.622Z" fill="black"/>
<path d="M80.4847 111.622H77.0254V115.082H80.4847V111.622Z" fill="black"/>
<path d="M83.9458 111.622H80.4863V115.082H83.9458V111.622Z" fill="black"/>
<path d="M87.4048 111.622H83.9453V115.082H87.4048V111.622Z" fill="black"/>
<path d="M90.8638 111.622H87.4043V115.082H90.8638V111.622Z" fill="black"/>
<path d="M94.3227 111.622H90.8633V115.082H94.3227V111.622Z" fill="black"/>
<path d="M104.702 111.622H101.242V115.082H104.702V111.622Z" fill="black"/>
<path d="M115.081 111.622H111.621V115.082H115.081V111.622Z" fill="black"/>
<path d="M21.5018 0.919327H4.5504H0.917969V4.55176V21.5031V25.1355H4.5504H21.5018H25.1342V21.5031V4.55176V0.919327H21.5018ZM21.5018 21.5031H4.5504V4.55176H21.5018V21.5031Z" fill="black"/>
<path d="M111.447 0.919327H94.4957H90.8633V4.55176V21.5031V25.1355H94.4957H111.447H115.079V21.5031V4.55176V0.919327H111.447ZM111.447 21.5031H94.4957V4.55176H111.447V21.5031Z" fill="black"/>
<path d="M21.5018 90.8655H4.5504H0.917969V94.498V111.449V115.082H4.5504H21.5018H25.1342V111.449V94.498V90.8655H21.5018ZM21.5018 111.449H4.5504V94.498H21.5018V111.449Z" fill="black"/>
<path d="M18.2143 7.83865H7.83594V18.217H18.2143V7.83865Z" fill="black"/>
<path d="M108.162 7.83865H97.7832V18.217H108.162V7.83865Z" fill="black"/>
<path d="M18.2143 97.7836H7.83594V108.162H18.2143V97.7836Z" fill="black"/>
</svg>
